{
	"asset":{
		"generator":"Khronos glTF Blender I/O v3.6.27",
		"version":"2.0"
	},
	"scene":0,
	"scenes":[
		{
			"name":"Scene",
			"nodes":[
				0
			]
		}
	],
	"nodes":[
		{
			"mesh":0,
			"name":"Plane"
		}
	],
	"meshes":[
		{
			"name":"Plane",
			"primitives":[
				{
					"attributes":{
						"POSITION":0,
						"NORMAL":1,
						"TEXCOORD_0":2
					},
					"indices":3
				}
			]
		}
	],
	"accessors":[
		{
			"bufferView":0,
			"componentType":5126,
			"count":16264,
			"max":[
				1,
				0.09921570122241974,
				1
			],
			"min":[
				-1,
				-0.10000000149011612,
				-1
			],
			"type":"VEC3"
		},
		{
			"bufferView":1,
			"componentType":5126,
			"count":16264,
			"type":"VEC3"
		},
		{
			"bufferView":2,
			"componentType":5126,
			"count":16264,
			"type":"VEC2"
		},
		{
			"bufferView":3,
			"componentType":5123,
			"count":24576,
			"type":"SCALAR"
		}
	],
	"bufferViews":[
		{
			"buffer":0,
			"byteLength":195168,
			"byteOffset":0,
			"target":34962
		},
		{
			"buffer":0,
			"byteLength":195168,
			"byteOffset":195168,
			"target":34962
		},
		{
			"buffer":0,
			"byteLength":130112,
			"byteOffset":390336,
			"target":34962
		},
		{
			"buffer":0,
			"byteLength":49152,
			"byteOffset":520448,
			"target":34963
		}
	],
	"buffers":[
		{
			"byteLength":569600,
			"uri":"data:application/octet-stream;base64,"
		}
	]
}
