{
	"asset":{
		"generator":"Khronos glTF Blender I/O v3.6.27",
		"version":"2.0"
	},
	"scene":0,
	"scenes":[
		{
			"name":"Scene",
			"nodes":[
				0,
				1,
				9
			]
		}
	],
	"nodes":[
		{
			"name":"Empty",
			"rotation":[
				0.70710688829422,
				0,
				0,
				0.7071066498756409
			],
			"translation":[
				1.539536952972412,
				0,
				-5.421483993530273
			]
		},
		{
			"name":"Empty.001",
			"rotation":[
				0.5000000596046448,
				-0.5,
				0.5,
				0.5
			],
			"translation":[
				5.414302825927734,
				0,
				0.39958247542381287
			]
		},
		{
			"name":"head",
			"rotation":[
				0.00473807891830802,
				4.5029651118966285e-08,
				-0.0017017869977280498,
				0.9999873638153076
			],
			"scale":[
				0.9999999403953552,
				0.9999998807907104,
				0.9999999403953552
			],
			"translation":[
				3.637751211371665e-11,
				0.6257038712501526,
				6.444532407723358e-13
			]
		},
		{
			"name":"arm.L",
			"rotation":[
				-0.7080814838409424,
				-0.002140625612810254,
				0.706112802028656,
				0.004556671716272831
			],
			"scale":[
				0.9999998807907104,
				0.9999998211860657,
				0.9999998807907104
			],
			"translation":[
				0.42318812012672424,
				0.4834142327308655,
				0.005761574953794479
			]
		},
		{
			"name":"leg.L",
			"rotation":[
				-0.7080815434455872,
				-0.002140647964552045,
				0.7061127424240112,
				0.0045566498301923275
			],
			"scale":[
				1,
				0.9999998211860657,
				1
			],
			"translation":[
				0.13597914576530457,
				-0.2209654301404953,
				-0.0017110786866396666
			]
		},
		{
			"name":"arm.R",
			"rotation":[
				-0.7061128616333008,
				0.004556672181934118,
				-0.7080814242362976,
				0.002140626311302185
			],
			"scale":[
				1,
				1.0000003576278687,
				1
			],
			"translation":[
				-0.4198874831199646,
				0.4863058626651764,
				0.003427996300160885
			]
		},
		{
			"name":"leg.R",
			"rotation":[
				-0.7061128616333008,
				0.004556662868708372,
				-0.7080814242362976,
				0.002140634460374713
			],
			"scale":[
				0.9999998807907104,
				0.9999998211860657,
				0.9999998807907104
			],
			"translation":[
				-0.13748018443584442,
				-0.22002747654914856,
				-0.002467996207997203
			]
		},
		{
			"children":[
				2,
				3,
				4,
				5,
				6
			],
			"name":"body",
			"rotation":[
				-0.0047356984578073025,
				0.0013920629862695932,
				0.0017083814600482583,
				0.9999863505363464
			],
			"translation":[
				0,
				-0.20272772014141083,
				0
			]
		},
		{
			"mesh":0,
			"name":"arm.L",
			"skin":0
		},
		{
			"children":[
				8,
				7
			],
			"name":"Armature",
			"translation":[
				0.002146102488040924,
				0.13896328210830688,
				-0.01854214072227478
			]
		}
	],
	"materials":[
		{
			"doubleSided":true,
			"name":"skin",
			"pbrMetallicRoughness":{
				"baseColorTexture":{
					"index":0
				},
				"metallicFactor":0,
				"roughnessFactor":0.5
			}
		}
	],
	"meshes":[
		{
			"name":"Cube.006",
			"primitives":[
				{
					"attributes":{
						"POSITION":0,
						"NORMAL":1,
						"TEXCOORD_0":2,
						"JOINTS_0":3,
						"WEIGHTS_0":4
					},
					"indices":5,
					"material":0
				}
			]
		}
	],
	"textures":[
		{
			"sampler":0,
			"source":0
		}
	],
	"images":[
		{
			"bufferView":6,
			"mimeType":"image/png",
			"name":"steve"
		}
	],
	"skins":[
		{
			"inverseBindMatrices":6,
			"joints":[
				7,
				2,
				3,
				4,
				5,
				6
			],
			"name":"Armature"
		}
	],
	"accessors":[
		{
			"bufferView":0,
			"componentType":5126,
			"count":176,
			"max":[
				0.5631835460662842,
				1.1256181001663208,
				0.2613873779773712
			],
			"min":[
				-0.5588913559913635,
				-1.121760368347168,
				-0.31031814217567444
			],
			"type":"VEC3"
		},
		{
			"bufferView":1,
			"componentType":5126,
			"count":176,
			"type":"VEC3"
		},
		{
			"bufferView":2,
			"componentType":5126,
			"count":176,
			"type":"VEC2"
		},
		{
			"bufferView":3,
			"componentType":5121,
			"count":176,
			"type":"VEC4"
		},
		{
			"bufferView":4,
			"componentType":5126,
			"count":176,
			"type":"VEC4"
		},
		{
			"bufferView":5,
			"componentType":5123,
			"count":312,
			"type":"SCALAR"
		},
		{
			"bufferView":7,
			"componentType":5126,
			"count":6,
			"type":"MAT4"
		}
	],
	"bufferViews":[
		{
			"buffer":0,
			"byteLength":2112,
			"byteOffset":0,
			"target":34962
		},
		{
			"buffer":0,
			"byteLength":2112,
			"byteOffset":2112,
			"target":34962
		},
		{
			"buffer":0,
			"byteLength":1408,
			"byteOffset":4224,
			"target":34962
		},
		{
			"buffer":0,
			"byteLength":704,
			"byteOffset":5632,
			"target":34962
		},
		{
			"buffer":0,
			"byteLength":2816,
			"byteOffset":6336,
			"target":34962
		},
		{
			"buffer":0,
			"byteLength":624,
			"byteOffset":9152,
			"target":34963
		},
		{
			"buffer":0,
			"byteLength":1350,
			"byteOffset":9776
		},
		{
			"buffer":0,
			"byteLength":384,
			"byteOffset":11128
		}
	],
	"samplers":[
		{
			"magFilter":9728,
			"minFilter":9984
		}
	],
	"buffers":[
		{
			"byteLength":11512,
			"uri":"data:application/octet-stream;base64,"
		}
	]
}
